<?xml version="1.0" encoding="UTF-8" standalone="no"?>
<!-- Created with Inkscape (http://www.inkscape.org/) -->

<svg
   xmlns:dc="http://purl.org/dc/elements/1.1/"
   xmlns:cc="http://creativecommons.org/ns#"
   xmlns:rdf="http://www.w3.org/1999/02/22-rdf-syntax-ns#"
   xmlns:svg="http://www.w3.org/2000/svg"
   xmlns="http://www.w3.org/2000/svg"
   xmlns:sodipodi="http://sodipodi.sourceforge.net/DTD/sodipodi-0.dtd"
   xmlns:inkscape="http://www.inkscape.org/namespaces/inkscape"
   width="210mm"
   height="297mm"
   viewBox="0 0 210 297"
   version="1.1"
   id="svg8"
   sodipodi:docname="Nowy dokument 1.2019_06_03_17_25_44.0.svg"
   inkscape:version="0.92.4 (5da689c313, 2019-01-14)">
  <defs
     id="defs2" />
  <sodipodi:namedview
     id="base"
     pagecolor="#ffffff"
     bordercolor="#666666"
     borderopacity="1.0"
     inkscape:pageopacity="0.0"
     inkscape:pageshadow="2"
     inkscape:zoom="0.98994949"
     inkscape:cx="122.47921"
     inkscape:cy="-86.311618"
     inkscape:document-units="mm"
     inkscape:current-layer="layer1"
     showgrid="false"
     inkscape:window-width="1920"
     inkscape:window-height="1027"
     inkscape:window-x="-8"
     inkscape:window-y="-8"
     inkscape:window-maximized="1"
     inkscape:snap-bbox="false"
     inkscape:bbox-nodes="false"
     inkscape:snap-global="false" />
  <metadata
     id="metadata5">
    <rdf:RDF>
      <cc:Work
         rdf:about="">
        <dc:format>image/svg+xml</dc:format>
        <dc:type
           rdf:resource="http://purl.org/dc/dcmitype/StillImage" />
        <dc:title />
      </cc:Work>
    </rdf:RDF>
  </metadata>
  <g
     inkscape:label="Layer 1"
     inkscape:groupmode="layer"
     id="layer1">
    <path
       style="fill:#000000;stroke-width:0.20963345"
       d="m 83.239732,10.65398 v 19.999814 h 5.000213 v -7.499799 h 50.000045 v 7.499799 h 5.00021 V 10.65398 h -5.00021 v 7.499803 H 88.239945 V 10.65398 Z"
       id="rect3750"
       inkscape:connector-curvature="0" />
    <text
       xml:space="preserve"
       style="font-style:normal;font-variant:normal;font-weight:normal;font-stretch:normal;font-size:10.58333302px;line-height:1.25;font-family:'Futura Md BT';-inkscape-font-specification:'Futura Md BT';letter-spacing:0px;word-spacing:0px;fill:#000000;fill-opacity:1;stroke:none;stroke-width:0.26458332"
       x="12.85119"
       y="23.156252"
       id="text3799"><tspan
         sodipodi:role="line"
         id="tspan3797"
         x="12.85119"
         y="23.156252"
         style="font-style:normal;font-variant:normal;font-weight:normal;font-stretch:normal;font-family:'Futura Md BT';-inkscape-font-specification:'Futura Md BT';stroke-width:0.26458332">Abc</tspan></text>
    <g
       id="g876"
       transform="translate(-14.432554,86.595327)"
       inkscape:export-xdpi="20.32"
       inkscape:export-ydpi="20.32"
       inkscape:export-filename="C:\Users\adan2013\Desktop\small\g876.png">
      <rect
         y="155.71233"
         x="18.389786"
         height="50"
         width="50"
         id="rect919"
         style="fill:#ff0000;stroke-width:0.32710275" />
      <path
         transform="matrix(1.2394848,0,0,1.23959,-40.536892,-28.390286)"
         d="m 75.193359,152.55273 a 1.1340394,1.1340394 0 0 0 -0.785156,0.33008 l -1.875,1.875 a 1.1340394,1.1340394 0 0 0 0,1.60547 l 2.009766,2.00977 -17.144531,17.14453 -2.009766,-2.00977 a 1.1340394,1.1340394 0 0 0 -1.605469,0 l -1.875,1.875 a 1.1340394,1.1340394 0 0 0 0,1.60547 l 7.5,7.5 a 1.1340394,1.1340394 0 0 0 1.605469,0 l 1.875,-1.875 a 1.1340394,1.1340394 0 0 0 0,-1.60547 l -2.009766,-2.00976 17.144532,-17.14453 2.009765,2.00976 a 1.1340394,1.1340394 0 0 0 1.605469,0 l 1.875,-1.875 a 1.1340394,1.1340394 0 0 0 0,-1.60547 l -7.5,-7.5 a 1.1340394,1.1340394 0 0 0 -0.820313,-0.33008 z"
         id="path921"
         style="fill:#ffffff;stroke-width:0.11117455"
         inkscape:original="M 75.210938 153.68555 L 73.335938 155.56055 L 76.148438 158.37305 L 57.398438 177.12305 L 54.585938 174.31055 L 52.710938 176.18555 L 60.210938 183.68555 L 62.085938 181.81055 L 59.273438 178.99805 L 78.023438 160.24805 L 80.835938 163.06055 L 82.710938 161.18555 L 75.210938 153.68555 z "
         inkscape:radius="1.133926"
         sodipodi:type="inkscape:offset" />
    </g>
    <g
       id="g954"
       transform="translate(-6.1364714,68.153729)"
       inkscape:export-filename="C:\Users\adan2013\Desktop\small\g954.png"
       inkscape:export-xdpi="20.320004"
       inkscape:export-ydpi="20.320004">
      <rect
         y="173.99858"
         x="127.26463"
         height="50"
         width="50"
         id="rect945"
         style="fill:#2c5aa0;stroke-width:0.32710275" />
      <g
         transform="matrix(1.1365311,0,0,1.1365311,73.69002,-1.2404596)"
         id="g928">
        <flowRoot
           xml:space="preserve"
           id="flowRoot3759"
           style="font-style:normal;font-weight:normal;font-size:40px;line-height:1.25;font-family:sans-serif;letter-spacing:0px;word-spacing:0px;fill:#999999;fill-opacity:1;stroke:none"
           transform="matrix(0.50109503,0,0,0.50109503,25.295886,4.0927842)"><flowRegion
             id="flowRegion3761"
             style="fill:#999999"><rect
               id="rect3763"
               width="182.85715"
               height="95"
               x="74.285713"
               y="309.66254"
               style="fill:#999999" /></flowRegion><flowPara
             id="flowPara3765"
             style="font-style:normal;font-variant:normal;font-weight:normal;font-stretch:normal;font-family:'Futura Md BT';-inkscape-font-specification:'Futura Md BT';fill:#999999">60</flowPara></flowRoot>        <flowRoot
           transform="matrix(0.50109503,0,0,0.50109503,19.614156,9.774166)"
           style="font-style:normal;font-weight:normal;font-size:40px;line-height:1.25;font-family:sans-serif;letter-spacing:0px;word-spacing:0px;fill:#cccccc;fill-opacity:1;stroke:none"
           id="flowRoot3773"
           xml:space="preserve"><flowRegion
             id="flowRegion3769"
             style="fill:#cccccc"><rect
               y="309.66254"
               x="74.285713"
               height="95"
               width="182.85715"
               id="rect3767"
               style="fill:#cccccc" /></flowRegion><flowPara
             style="font-style:normal;font-variant:normal;font-weight:normal;font-stretch:normal;font-family:'Futura Md BT';-inkscape-font-specification:'Futura Md BT';fill:#cccccc"
             id="flowPara3771">40</flowPara></flowRoot>        <flowRoot
           xml:space="preserve"
           id="flowRoot3781"
           style="font-style:normal;font-weight:normal;font-size:40px;line-height:1.25;font-family:sans-serif;letter-spacing:0px;word-spacing:0px;fill:#f2f2f2;fill-opacity:1;stroke:none"
           transform="matrix(0.50109503,0,0,0.50109503,13.932449,15.455874)"><flowRegion
             id="flowRegion3777"
             style="fill:#f2f2f2"><rect
               id="rect3775"
               width="182.85715"
               height="95"
               x="74.285713"
               y="309.66254"
               style="fill:#f2f2f2" /></flowRegion><flowPara
             id="flowPara3779"
             style="font-style:normal;font-variant:normal;font-weight:normal;font-stretch:normal;font-family:'Futura Md BT';-inkscape-font-specification:'Futura Md BT';fill:#f2f2f2">20</flowPara></flowRoot>      </g>
    </g>
    <g
       id="g1003"
       transform="translate(-18.708867,-143.52374)">
      <flowRoot
         xml:space="preserve"
         id="flowRoot985"
         style="font-style:normal;font-weight:normal;font-size:40px;line-height:1.25;font-family:sans-serif;letter-spacing:0px;word-spacing:0px;fill:#999999;fill-opacity:1;stroke:none"
         transform="matrix(0.50109503,0,0,0.50109503,32.602596,-9.7827158)"><flowRegion
           id="flowRegion981"
           style="fill:#999999"><rect
             id="rect979"
             width="182.85715"
             height="95"
             x="74.285713"
             y="309.66254"
             style="fill:#999999" /></flowRegion><flowPara
           id="flowPara983"
           style="font-style:normal;font-variant:normal;font-weight:normal;font-stretch:normal;font-family:Impact;-inkscape-font-specification:Impact;fill:#999999">60</flowPara></flowRoot>      <flowRoot
         transform="matrix(0.50109503,0,0,0.50109503,26.920866,-4.101334)"
         style="font-style:normal;font-weight:normal;font-size:40px;line-height:1.25;font-family:sans-serif;letter-spacing:0px;word-spacing:0px;fill:#cccccc;fill-opacity:1;stroke:none"
         id="flowRoot993"
         xml:space="preserve"><flowRegion
           id="flowRegion989"
           style="fill:#cccccc"><rect
             y="309.66254"
             x="74.285713"
             height="95"
             width="182.85715"
             id="rect987"
             style="fill:#cccccc" /></flowRegion><flowPara
           style="font-style:normal;font-variant:normal;font-weight:normal;font-stretch:normal;font-family:Impact;-inkscape-font-specification:Impact;fill:#cccccc"
           id="flowPara991">40</flowPara></flowRoot>      <flowRoot
         xml:space="preserve"
         id="flowRoot1001"
         style="font-style:normal;font-weight:normal;font-size:40px;line-height:1.25;font-family:sans-serif;letter-spacing:0px;word-spacing:0px;fill:#f2f2f2;fill-opacity:1;stroke:none"
         transform="matrix(0.50109503,0,0,0.50109503,21.239159,1.5803735)"><flowRegion
           id="flowRegion997"
           style="fill:#f2f2f2"><rect
             id="rect995"
             width="182.85715"
             height="95"
             x="74.285713"
             y="309.66254"
             style="fill:#f2f2f2" /></flowRegion><flowPara
           id="flowPara999"
           style="font-style:normal;font-variant:normal;font-weight:normal;font-stretch:normal;font-family:Impact;-inkscape-font-specification:Impact;fill:#f2f2f2">20</flowPara></flowRoot>    </g>
    <g
       id="g982"
       inkscape:export-filename="C:\Users\adan2013\Desktop\small\g982.png"
       inkscape:export-xdpi="20.32"
       inkscape:export-ydpi="20.32">
      <rect
         style="fill:#008000;stroke-width:0.32710275"
         id="rect1021"
         width="50"
         height="50"
         x="4.2966628"
         y="300.66714" />
      <text
         xml:space="preserve"
         style="font-style:normal;font-variant:normal;font-weight:normal;font-stretch:normal;font-size:22.11663055px;line-height:1.25;font-family:'Futura Md BT';-inkscape-font-specification:'Futura Md BT';letter-spacing:0px;word-spacing:0px;fill:#ffffff;fill-opacity:1;stroke:none;stroke-width:0.55291611"
         x="9.469449"
         y="333.8259"
         id="text1031"><tspan
           sodipodi:role="line"
           id="tspan1029"
           x="9.469449"
           y="333.8259"
           style="font-style:normal;font-variant:normal;font-weight:normal;font-stretch:normal;font-family:'Futura Md BT';-inkscape-font-specification:'Futura Md BT';fill:#ffffff;stroke-width:0.55291611">Abc</tspan></text>
    </g>
    <path
       transform="translate(97.842189,-132.55366)"
       d="m 70.935547,146.76562 v 0.0508 a 19.999987,19.999856 0 0 0 -3.201172,0.40625 l -0.0098,-0.0332 -1.93164,0.51758 0.0098,0.0332 a 19.999987,19.999856 0 0 0 -2.978515,1.24415 l -0.02148,-0.0391 -1.732422,1 0.02148,0.0391 a 19.999987,19.999856 0 0 0 -2.556641,1.96679 l -0.03516,-0.0351 -1.414062,1.41406 0.03516,0.0351 a 19.999987,19.999856 0 0 0 -1.982422,2.54883 l -0.02344,-0.0137 -1,1.73242 0.02344,0.0137 a 19.999987,19.999856 0 0 0 -1.214844,2.99024 l -0.04687,-0.0137 -0.517578,1.93164 0.04687,0.0137 a 19.999987,19.999856 0 0 0 -0.435547,3.19726 h -0.03516 v 1 1 h 0.05078 a 19.999987,19.999856 0 0 0 0.40625,3.20118 l -0.0332,0.01 0.517578,1.93164 0.0332,-0.01 a 19.999987,19.999856 0 0 0 1.244141,2.97851 l -0.03906,0.0234 1,1.73242 0.03906,-0.0234 a 19.999987,19.999856 0 0 0 1.966797,2.55859 l -0.03516,0.0332 1.414062,1.41406 0.03516,-0.0332 a 19.999987,19.999856 0 0 0 2.548828,1.98047 l -0.01367,0.0234 1.732422,1 0.01367,-0.0234 a 19.999987,19.999856 0 0 0 2.990235,1.21484 l -0.01367,0.0488 1.93164,0.51758 0.01367,-0.0488 a 19.999987,19.999856 0 0 0 3.197266,0.43555 v 0.0352 h 1 1 v -0.0488 a 19.999987,19.999856 0 0 0 3.201172,-0.40821 l 0.0098,0.0352 1.931641,-0.51758 -0.0098,-0.0351 a 19.999987,19.999856 0 0 0 2.978516,-1.24219 l 0.02344,0.0371 1.732422,-1 -0.02344,-0.0371 a 19.999987,19.999856 0 0 0 2.558594,-1.9668 l 0.0332,0.0332 1.414062,-1.41406 -0.0332,-0.0332 a 19.999987,19.999856 0 0 0 1.980469,-2.55078 l 0.02344,0.0156 1,-1.73242 -0.02344,-0.0137 a 19.999987,19.999856 0 0 0 1.214844,-2.99024 l 0.04883,0.0117 0.517578,-1.93164 -0.04883,-0.0137 a 19.999987,19.999856 0 0 0 0.435547,-3.19727 h 0.03516 v -1 -1 h -0.04883 a 19.999987,19.999856 0 0 0 -0.408203,-3.20117 l 0.03516,-0.008 -0.517578,-1.93164 -0.03516,0.008 A 19.999987,19.999856 0 0 0 89.71875,157.6543 l 0.03711,-0.0215 -1,-1.73242 -0.03711,0.0215 a 19.999987,19.999856 0 0 0 -1.966797,-2.55665 l 0.0332,-0.0351 -1.414062,-1.41406 -0.0332,0.0351 a 19.999987,19.999856 0 0 0 -2.550782,-1.98242 l 0.01563,-0.0234 -1.732422,-1 -0.01367,0.0234 a 19.999987,19.999856 0 0 0 -2.992188,-1.21484 l 0.01367,-0.0469 -1.931641,-0.51758 -0.01367,0.0469 a 19.999987,19.999856 0 0 0 -3.197265,-0.43555 v -0.0352 h -1 z m 0,2.03516 v 3 a 14.999989,14.999892 0 0 1 1,-0.0352 14.999989,14.999892 0 0 1 1,0.0508 v -3 a 17.999988,17.999871 0 0 1 2.685547,0.33593 l -0.779297,2.90235 a 14.999989,14.999892 0 0 1 1.929687,0.52929 l 0.779297,-2.90625 a 17.999988,17.999871 0 0 1 2.496094,1.04102 l -1.501953,2.60156 a 14.999989,14.999892 0 0 1 1.736328,0.99024 l 1.5,-2.59571 a 17.999988,17.999871 0 0 1 2.142578,1.64844 l -2.11914,2.1211 a 14.999989,14.999892 0 0 1 1.408203,1.41796 l 2.123047,-2.12304 a 17.999988,17.999871 0 0 1 1.658203,2.13867 l -2.607422,1.50391 a 14.999989,14.999892 0 0 1 1.001953,1.73046 l 2.609375,-1.50586 a 17.999988,17.999871 0 0 1 1.017578,2.50782 l -2.900391,0.77734 a 14.999989,14.999892 0 0 1 0.523438,1.92969 l 2.896484,-0.77539 a 17.999988,17.999871 0 0 1 0.365235,2.67968 h -3 a 14.999989,14.999892 0 0 1 0.03516,1 14.999989,14.999892 0 0 1 -0.04883,1 h 2.998047 a 17.999988,17.999871 0 0 1 -0.335938,2.68555 l -2.90039,-0.77929 a 14.999989,14.999892 0 0 1 -0.529297,1.92968 l 2.904297,0.7793 a 17.999988,17.999871 0 0 1 -1.041016,2.49609 l -2.601563,-1.5039 a 14.999989,14.999892 0 0 1 -0.988281,1.73828 l 2.595703,1.5 a 17.999988,17.999871 0 0 1 -1.65039,2.14258 l -2.119141,-2.1211 a 14.999989,14.999892 0 0 1 -1.419922,1.41016 l 2.123047,2.12305 a 17.999988,17.999871 0 0 1 -2.136719,1.6582 l -1.505859,-2.60742 a 14.999989,14.999892 0 0 1 -1.730469,1.00195 l 1.50586,2.60937 a 17.999988,17.999871 0 0 1 -2.507813,1.01758 l -0.775391,-2.90039 a 14.999989,14.999892 0 0 1 -1.93164,0.52344 l 0.777344,2.89648 a 17.999988,17.999871 0 0 1 -2.681641,0.36524 v -3 a 14.999989,14.999892 0 0 1 -1,0.0352 14.999989,14.999892 0 0 1 -1,-0.0508 v 3.00196 a 17.999988,17.999871 0 0 1 -2.683594,-0.33789 l 0.777344,-2.90039 a 14.999989,14.999892 0 0 1 -1.929688,-0.5293 l -0.777343,2.90625 a 17.999988,17.999871 0 0 1 -2.496094,-1.04102 l 1.501953,-2.60351 a 14.999989,14.999892 0 0 1 -1.738281,-0.98828 l -1.498047,2.5957 a 17.999988,17.999871 0 0 1 -2.144531,-1.65039 l 2.121093,-2.11914 a 14.999989,14.999892 0 0 1 -1.410156,-1.41992 l -2.123047,2.12304 a 17.999988,17.999871 0 0 1 -1.658203,-2.13672 l 2.607422,-1.50585 a 14.999989,14.999892 0 0 1 -1.001953,-1.73047 l -2.609375,1.50586 a 17.999988,17.999871 0 0 1 -1.017578,-2.50782 l 2.90039,-0.77539 a 14.999989,14.999892 0 0 1 -0.521484,-1.93164 l -2.898437,0.77539 a 17.999988,17.999871 0 0 1 -0.365235,-2.67969 h 3 a 14.999989,14.999892 0 0 1 -0.03516,-1 14.999989,14.999892 0 0 1 0.05078,-1 h -3 a 17.999988,17.999871 0 0 1 0.335938,-2.68359 l 2.902343,0.77735 a 14.999989,14.999892 0 0 1 0.527344,-1.92969 l -2.904297,-0.77735 a 17.999988,17.999871 0 0 1 1.041016,-2.49609 l 2.601562,1.50195 a 14.999989,14.999892 0 0 1 0.990235,-1.73828 l -2.595703,-1.49804 a 17.999988,17.999871 0 0 1 1.648437,-2.14454 l 2.121094,2.1211 a 14.999989,14.999892 0 0 1 1.419922,-1.40821 l -2.125,-2.125 a 17.999988,17.999871 0 0 1 2.138672,-1.6582 l 1.503906,2.60742 a 14.999989,14.999892 0 0 1 1.730469,-1.00195 l -1.50586,-2.60938 a 17.999988,17.999871 0 0 1 2.507813,-1.01562 l 0.777343,2.89844 a 14.999989,14.999892 0 0 1 1.929688,-0.52149 l -0.775391,-2.89648 a 17.999988,17.999871 0 0 1 2.679688,-0.36719 z"
       id="path864"
       style="fill:#000000;stroke-width:0.09790172"
       inkscape:original="M 70.935547 146.76562 L 70.935547 146.81641 A 19.999987 19.999856 0 0 0 67.734375 147.22266 L 67.724609 147.18945 L 65.792969 147.70703 L 65.802734 147.74023 A 19.999987 19.999856 0 0 0 62.824219 148.98438 L 62.802734 148.94531 L 61.070312 149.94531 L 61.091797 149.98438 A 19.999987 19.999856 0 0 0 58.535156 151.95117 L 58.5 151.91602 L 57.085938 153.33008 L 57.121094 153.36523 A 19.999987 19.999856 0 0 0 55.138672 155.91406 L 55.115234 155.90039 L 54.115234 157.63281 L 54.138672 157.64648 A 19.999987 19.999856 0 0 0 52.923828 160.63672 L 52.876953 160.62305 L 52.359375 162.55469 L 52.40625 162.56836 A 19.999987 19.999856 0 0 0 51.970703 165.76562 L 51.935547 165.76562 L 51.935547 166.76562 L 51.935547 167.76562 L 51.986328 167.76562 A 19.999987 19.999856 0 0 0 52.392578 170.9668 L 52.359375 170.97656 L 52.876953 172.9082 L 52.910156 172.89844 A 19.999987 19.999856 0 0 0 54.154297 175.87695 L 54.115234 175.90039 L 55.115234 177.63281 L 55.154297 177.60938 A 19.999987 19.999856 0 0 0 57.121094 180.16797 L 57.085938 180.20117 L 58.5 181.61523 L 58.535156 181.58203 A 19.999987 19.999856 0 0 0 61.083984 183.5625 L 61.070312 183.58594 L 62.802734 184.58594 L 62.816406 184.5625 A 19.999987 19.999856 0 0 0 65.806641 185.77734 L 65.792969 185.82617 L 67.724609 186.34375 L 67.738281 186.29492 A 19.999987 19.999856 0 0 0 70.935547 186.73047 L 70.935547 186.76562 L 71.935547 186.76562 L 72.935547 186.76562 L 72.935547 186.7168 A 19.999987 19.999856 0 0 0 76.136719 186.30859 L 76.146484 186.34375 L 78.078125 185.82617 L 78.068359 185.79102 A 19.999987 19.999856 0 0 0 81.046875 184.54883 L 81.070312 184.58594 L 82.802734 183.58594 L 82.779297 183.54883 A 19.999987 19.999856 0 0 0 85.337891 181.58203 L 85.371094 181.61523 L 86.785156 180.20117 L 86.751953 180.16797 A 19.999987 19.999856 0 0 0 88.732422 177.61719 L 88.755859 177.63281 L 89.755859 175.90039 L 89.732422 175.88672 A 19.999987 19.999856 0 0 0 90.947266 172.89648 L 90.996094 172.9082 L 91.513672 170.97656 L 91.464844 170.96289 A 19.999987 19.999856 0 0 0 91.900391 167.76562 L 91.935547 167.76562 L 91.935547 166.76562 L 91.935547 165.76562 L 91.886719 165.76562 A 19.999987 19.999856 0 0 0 91.478516 162.56445 L 91.513672 162.55664 L 90.996094 160.625 L 90.960938 160.63281 A 19.999987 19.999856 0 0 0 89.71875 157.6543 L 89.755859 157.63281 L 88.755859 155.90039 L 88.71875 155.92188 A 19.999987 19.999856 0 0 0 86.751953 153.36523 L 86.785156 153.33008 L 85.371094 151.91602 L 85.337891 151.95117 A 19.999987 19.999856 0 0 0 82.787109 149.96875 L 82.802734 149.94531 L 81.070312 148.94531 L 81.056641 148.96875 A 19.999987 19.999856 0 0 0 78.064453 147.75391 L 78.078125 147.70703 L 76.146484 147.18945 L 76.132812 147.23633 A 19.999987 19.999856 0 0 0 72.935547 146.80078 L 72.935547 146.76562 L 71.935547 146.76562 L 70.935547 146.76562 z M 70.935547 148.80078 L 70.935547 151.80078 A 14.999989 14.999892 0 0 1 71.935547 151.76562 A 14.999989 14.999892 0 0 1 72.935547 151.81641 L 72.935547 148.81641 A 17.999988 17.999871 0 0 1 75.621094 149.15234 L 74.841797 152.05469 A 14.999989 14.999892 0 0 1 76.771484 152.58398 L 77.550781 149.67773 A 17.999988 17.999871 0 0 1 80.046875 150.71875 L 78.544922 153.32031 A 14.999989 14.999892 0 0 1 80.28125 154.31055 L 81.78125 151.71484 A 17.999988 17.999871 0 0 1 83.923828 153.36328 L 81.804688 155.48438 A 14.999989 14.999892 0 0 1 83.212891 156.90234 L 85.335938 154.7793 A 17.999988 17.999871 0 0 1 86.994141 156.91797 L 84.386719 158.42188 A 14.999989 14.999892 0 0 1 85.388672 160.15234 L 87.998047 158.64648 A 17.999988 17.999871 0 0 1 89.015625 161.1543 L 86.115234 161.93164 A 14.999989 14.999892 0 0 1 86.638672 163.86133 L 89.535156 163.08594 A 17.999988 17.999871 0 0 1 89.900391 165.76562 L 86.900391 165.76562 A 14.999989 14.999892 0 0 1 86.935547 166.76562 A 14.999989 14.999892 0 0 1 86.886719 167.76562 L 89.884766 167.76562 A 17.999988 17.999871 0 0 1 89.548828 170.45117 L 86.648438 169.67188 A 14.999989 14.999892 0 0 1 86.119141 171.60156 L 89.023438 172.38086 A 17.999988 17.999871 0 0 1 87.982422 174.87695 L 85.380859 173.37305 A 14.999989 14.999892 0 0 1 84.392578 175.11133 L 86.988281 176.61133 A 17.999988 17.999871 0 0 1 85.337891 178.75391 L 83.21875 176.63281 A 14.999989 14.999892 0 0 1 81.798828 178.04297 L 83.921875 180.16602 A 17.999988 17.999871 0 0 1 81.785156 181.82422 L 80.279297 179.2168 A 14.999989 14.999892 0 0 1 78.548828 180.21875 L 80.054688 182.82812 A 17.999988 17.999871 0 0 1 77.546875 183.8457 L 76.771484 180.94531 A 14.999989 14.999892 0 0 1 74.839844 181.46875 L 75.617188 184.36523 A 17.999988 17.999871 0 0 1 72.935547 184.73047 L 72.935547 181.73047 A 14.999989 14.999892 0 0 1 71.935547 181.76562 A 14.999989 14.999892 0 0 1 70.935547 181.71484 L 70.935547 184.7168 A 17.999988 17.999871 0 0 1 68.251953 184.37891 L 69.029297 181.47852 A 14.999989 14.999892 0 0 1 67.099609 180.94922 L 66.322266 183.85547 A 17.999988 17.999871 0 0 1 63.826172 182.81445 L 65.328125 180.21094 A 14.999989 14.999892 0 0 1 63.589844 179.22266 L 62.091797 181.81836 A 17.999988 17.999871 0 0 1 59.947266 180.16797 L 62.068359 178.04883 A 14.999989 14.999892 0 0 1 60.658203 176.62891 L 58.535156 178.75195 A 17.999988 17.999871 0 0 1 56.876953 176.61523 L 59.484375 175.10938 A 14.999989 14.999892 0 0 1 58.482422 173.37891 L 55.873047 174.88477 A 17.999988 17.999871 0 0 1 54.855469 172.37695 L 57.755859 171.60156 A 14.999989 14.999892 0 0 1 57.234375 169.66992 L 54.335938 170.44531 A 17.999988 17.999871 0 0 1 53.970703 167.76562 L 56.970703 167.76562 A 14.999989 14.999892 0 0 1 56.935547 166.76562 A 14.999989 14.999892 0 0 1 56.986328 165.76562 L 53.986328 165.76562 A 17.999988 17.999871 0 0 1 54.322266 163.08203 L 57.224609 163.85938 A 14.999989 14.999892 0 0 1 57.751953 161.92969 L 54.847656 161.15234 A 17.999988 17.999871 0 0 1 55.888672 158.65625 L 58.490234 160.1582 A 14.999989 14.999892 0 0 1 59.480469 158.41992 L 56.884766 156.92188 A 17.999988 17.999871 0 0 1 58.533203 154.77734 L 60.654297 156.89844 A 14.999989 14.999892 0 0 1 62.074219 155.49023 L 59.949219 153.36523 A 17.999988 17.999871 0 0 1 62.087891 151.70703 L 63.591797 154.31445 A 14.999989 14.999892 0 0 1 65.322266 153.3125 L 63.816406 150.70312 A 17.999988 17.999871 0 0 1 66.324219 149.6875 L 67.101562 152.58594 A 14.999989 14.999892 0 0 1 69.03125 152.06445 L 68.255859 149.16797 A 17.999988 17.999871 0 0 1 70.935547 148.80078 z "
       inkscape:radius="0"
       sodipodi:type="inkscape:offset" />
    <g
       id="g1017"
       transform="matrix(0.43707241,0,0,0.43707241,-0.85134372,-23.454191)">
      <path
         inkscape:connector-curvature="0"
         id="path984"
         d="m 41.911886,164.26967 v 7.99431 h 37.695079 v -0.006 c 28.825065,-0.0709 118.834145,-2.98584 118.834145,-3.99385 0,-1.00801 -90.00908,-3.92309 -118.834145,-3.99385 v -0.006 z"
         style="fill:#aa0000;fill-opacity:1;fill-rule:nonzero;stroke-width:0.0771003" />
      <circle
         r="12.5"
         cy="168.26413"
         cx="74.708992"
         id="path991"
         style="fill:#333333;fill-opacity:1;fill-rule:nonzero;stroke-width:0.26147261" />
    </g>
    <g
       id="g1035"
       transform="translate(-6.5375363,-13.927795)"
       inkscape:export-filename="C:\Users\adan2013\Desktop\small\g1035.png"
       inkscape:export-xdpi="20.319996"
       inkscape:export-ydpi="20.319996">
      <rect
         style="fill:#2c5aa0;fill-opacity:1;stroke-width:0.32710275"
         id="rect956"
         width="50"
         height="50"
         x="128.51416"
         y="315.51431" />
      <g
         id="g1029">
        <path
           inkscape:connector-curvature="0"
           id="path1019"
           d="m 173.51416,322.5056 -1.99195,-1.99195 -9.39252,9.39251 10e-4,0.002 c -7.1647,7.20003 -28.86603,30.354 -28.61486,30.60517 0.25117,0.25116 23.40517,-21.45013 30.60517,-28.61487 l 0.001,10e-4 z"
           style="fill:#ffffff;fill-opacity:1;fill-rule:nonzero;stroke-width:0.02716867" />
        <circle
           r="4.4047613"
           cy="-349.33136"
           cx="116.90993"
           id="circle1021"
           style="fill:#808080;fill-opacity:1;fill-rule:nonzero;stroke-width:0.09213796"
           transform="rotate(135)" />
      </g>
    </g>
    <g
       id="g1098"
       transform="translate(59.690548,-35.530088)">
      <path
         transform="scale(0.26458333)"
         id="path1092"
         d="m 271.74414,400.19336 h 18.83984 a 75.590551,75.590551 0 0 0 -71.61914,-71.67578 v 18.95312 a 56.692913,56.692913 0 0 1 52.7793,52.72266 z"
         style="fill:#cccccc;fill-opacity:1;fill-rule:nonzero;stroke-width:0.88506782"
         inkscape:connector-curvature="0" />
      <path
         transform="scale(0.26458333)"
         id="path1088"
         d="M 218.96484,460.53125 V 479.375 a 75.590551,75.590551 0 0 0 71.67383,-71.62109 H 271.6875 a 56.692913,56.692913 0 0 1 -52.72266,52.77734 z"
         style="fill:#ffffff;fill-opacity:1;fill-rule:nonzero;stroke-width:0.88506782"
         inkscape:connector-curvature="0" />
      <path
         transform="scale(0.26458333)"
         id="path1084"
         d="m 158.625,407.75391 h -18.8418 a 75.590551,75.590551 0 0 0 71.6211,71.67578 V 460.47656 A 56.692913,56.692913 0 0 1 158.625,407.75391 Z"
         style="fill:#333333;fill-opacity:1;fill-rule:nonzero;stroke-width:0.88506782"
         inkscape:connector-curvature="0" />
      <path
         transform="scale(0.26458333)"
         id="path1080"
         d="m 211.4043,328.57227 a 75.590551,75.590551 0 0 0 -71.67578,71.62109 h 18.95117 a 56.692913,56.692913 0 0 1 52.72461,-52.77734 z"
         style="fill:#808080;fill-opacity:1;fill-rule:nonzero;stroke-width:0.88506782"
         inkscape:connector-curvature="0" />
    </g>
    <g
       id="g902"
       inkscape:export-filename="C:\Users\adan2013\Desktop\small\g902.png"
       inkscape:export-xdpi="20.319998"
       inkscape:export-ydpi="20.319998">
      <rect
         y="300.66714"
         x="62.738182"
         height="50"
         width="50"
         id="rect968"
         style="fill:#2c5aa0;fill-opacity:1;stroke-width:0.32710275" />
      <g
         transform="matrix(1.0017955,0,0,1.0017825,30.701965,218.59193)"
         id="g1108">
        <path
           inkscape:connector-curvature="0"
           transform="scale(0.26458333)"
           id="path1100"
           d="m 271.74414,400.19336 h 18.83984 a 75.590551,75.590551 0 0 0 -71.61914,-71.67578 v 18.95312 a 56.692913,56.692913 0 0 1 52.7793,52.72266 z"
           style="fill:#cccccc;fill-opacity:1;fill-rule:nonzero;stroke-width:0.88506782" />
        <path
           inkscape:connector-curvature="0"
           transform="scale(0.26458333)"
           id="path1102"
           d="M 218.96484,460.53125 V 479.375 a 75.590551,75.590551 0 0 0 71.67383,-71.62109 H 271.6875 a 56.692913,56.692913 0 0 1 -52.72266,52.77734 z"
           style="fill:#ffffff;fill-opacity:1;fill-rule:nonzero;stroke-width:0.88506782" />
        <path
           inkscape:connector-curvature="0"
           transform="scale(0.26458333)"
           id="path1104"
           d="m 158.625,407.75391 h -18.8418 a 75.590551,75.590551 0 0 0 71.6211,71.67578 V 460.47656 A 56.692913,56.692913 0 0 1 158.625,407.75391 Z"
           style="fill:#333333;fill-opacity:1;fill-rule:nonzero;stroke-width:0.88506782" />
        <path
           inkscape:connector-curvature="0"
           transform="scale(0.26458333)"
           id="path1106"
           d="m 211.4043,328.57227 a 75.590551,75.590551 0 0 0 -71.67578,71.62109 h 18.95117 a 56.692913,56.692913 0 0 1 52.72461,-52.77734 z"
           style="fill:#808080;fill-opacity:1;fill-rule:nonzero;stroke-width:0.88506782" />
      </g>
    </g>
    <g
       id="g1133"
       transform="translate(57.985107,1.7054442)"
       inkscape:export-filename="C:\Users\adan2013\Desktop\small\g1133.png"
       inkscape:export-xdpi="20.32"
       inkscape:export-ydpi="20.32">
      <rect
         y="355.49088"
         x="5.1006169"
         height="50"
         width="50"
         id="rect1118"
         style="fill:#008000;stroke-width:0.32710275" />
      <path
         inkscape:connector-curvature="0"
         id="rect1110"
         d="m 10.100804,370.49097 v 19.99981 H 50.10043 v -19.99981 z m 2.999817,2.99982 h 33.999992 v 14.00017 H 13.100621 Z"
         style="fill:#ffffff;fill-opacity:1;fill-rule:nonzero;stroke-width:0.25415644" />
    </g>
    <g
       id="g1142"
       inkscape:export-filename="C:\Users\adan2013\Desktop\small\g1142.png"
       inkscape:export-xdpi="20.32"
       inkscape:export-ydpi="20.32">
      <rect
         style="fill:#008000;stroke-width:0.32710275"
         id="rect1129"
         width="50"
         height="50"
         x="3.4612689"
         y="356.3638" />
      <path
         inkscape:connector-curvature="0"
         id="path1135"
         d="M 28.46101,361.36373 A 20,20 0 0 0 8.4611981,381.36406 20,20 0 0 0 28.46101,401.36387 20,20 0 0 0 48.46134,381.36406 20,20 0 0 0 28.46101,361.36373 Z m 0,3.00033 a 17,17 0 0 1 16.999995,17 17,17 0 0 1 -16.999995,16.99999 17,17 0 0 1 -16.999995,-16.99999 17,17 0 0 1 16.999995,-17 z"
         style="fill:#ffffff;fill-opacity:1;fill-rule:nonzero;stroke-width:0.23867752" />
    </g>
    <g
       id="g894"
       transform="translate(17.907058,87.664405)"
       inkscape:export-xdpi="20.320002"
       inkscape:export-ydpi="20.320002"
       inkscape:export-filename="C:\Users\adan2013\Desktop\small\g894.png">
      <rect
         y="153.29134"
         x="45.400433"
         height="50"
         width="50"
         id="rect884"
         style="fill:#2c5aa0;fill-opacity:1;stroke-width:0.32710275" />
      <path
         inkscape:connector-curvature="0"
         id="path1155"
         d="M 70.400435,158.29126 A 20,20 0 0 0 50.400621,178.29159 20,20 0 0 0 70.400435,198.2914 20,20 0 0 0 90.400247,178.29159 20,20 0 0 0 70.400435,158.29126 Z m -1.256255,2.54558 v 4.52789 a 13,13 0 0 1 1.256255,-0.0734 13,13 0 0 1 1.256252,0.0631 v -4.49999 a 17.5,17.5 0 0 1 6.372739,1.71153 l -2.25361,3.9026 a 13,13 0 0 1 2.176611,1.25419 l 2.261362,-3.91656 a 17.5,17.5 0 0 1 4.660696,4.67775 l -3.910873,2.25775 a 13,13 0 0 1 1.256255,2.17557 l 3.913458,-2.25929 a 17.5,17.5 0 0 1 1.721342,6.37687 h -4.527373 a 13,13 0 0 1 0.07338,1.25625 13,13 0 0 1 -0.06304,1.25626 h 4.500501 a 17.5,17.5 0 0 1 -1.712042,6.37274 l -3.90312,-2.25361 a 13,13 0 0 1 -1.254186,2.17712 l 3.917072,2.26137 a 17.5,17.5 0 0 1 -4.678267,4.66018 l -2.257743,-3.91036 a 13,13 0 0 1 -2.175579,1.25625 l 2.259296,3.91294 a 17.5,17.5 0 0 1 -6.376874,1.72135 v -4.52738 a 13,13 0 0 1 -1.256252,0.0734 13,13 0 0 1 -1.256255,-0.0631 v 4.49998 a 17.5,17.5 0 0 1 -6.372738,-1.71152 l 2.25361,-3.90312 a 13,13 0 0 1 -2.176611,-1.25419 l -2.261362,3.91708 a 17.5,17.5 0 0 1 -4.660696,-4.67827 l 3.910872,-2.25774 A 13,13 0 0 1 58.581,183.66491 l -3.913454,2.25929 a 17.5,17.5 0 0 1 -1.721342,-6.37687 h 4.527888 a 13,13 0 0 1 -0.07338,-1.25626 13,13 0 0 1 0.06305,-1.25625 h -4.500499 a 17.5,17.5 0 0 1 1.711523,-6.37274 l 3.90312,2.25361 a 13,13 0 0 1 1.254705,-2.17661 l -3.917074,-2.26136 a 17.5,17.5 0 0 1 4.677751,-4.6607 l 2.258261,3.91088 a 13,13 0 0 1 2.17506,-1.25626 l -2.259293,-3.91346 a 17.5,17.5 0 0 1 6.376871,-1.72134 z"
         style="fill:#ffffff;fill-opacity:1;fill-rule:nonzero;stroke-width:0.30771652" />
    </g>
    <ellipse
       style="fill:#ff00ff;fill-opacity:1;fill-rule:nonzero;stroke-width:0.4816134"
       id="path1174"
       cx="66.633705"
       cy="143.52893"
       r="15" />
  </g>
</svg>
