<?xml version="1.0" encoding="UTF-8" standalone="no"?>
<!-- Created with Inkscape (http://www.inkscape.org/) -->

<svg
   xmlns:dc="http://purl.org/dc/elements/1.1/"
   xmlns:cc="http://creativecommons.org/ns#"
   xmlns:rdf="http://www.w3.org/1999/02/22-rdf-syntax-ns#"
   xmlns:svg="http://www.w3.org/2000/svg"
   xmlns="http://www.w3.org/2000/svg"
   xmlns:sodipodi="http://sodipodi.sourceforge.net/DTD/sodipodi-0.dtd"
   xmlns:inkscape="http://www.inkscape.org/namespaces/inkscape"
   width="210mm"
   height="297mm"
   viewBox="0 0 210 297"
   version="1.1"
   id="svg8"
   inkscape:version="0.92.4 (5da689c313, 2019-01-14)"
   sodipodi:docname="gg logo.svg">
  <defs
     id="defs2">
    <inkscape:perspective
       sodipodi:type="inkscape:persp3d"
       inkscape:vp_x="0 : 148.5 : 1"
       inkscape:vp_y="0 : 1000 : 0"
       inkscape:vp_z="210 : 148.5 : 1"
       inkscape:persp3d-origin="105 : 99 : 1"
       id="perspective865" />
  </defs>
  <sodipodi:namedview
     id="base"
     pagecolor="#ffffff"
     bordercolor="#666666"
     borderopacity="1.0"
     inkscape:pageopacity="0.0"
     inkscape:pageshadow="2"
     inkscape:zoom="5.6568543"
     inkscape:cx="248.37724"
     inkscape:cy="1085.0479"
     inkscape:document-units="mm"
     inkscape:current-layer="layer1"
     showgrid="false"
     inkscape:snap-bbox="false"
     inkscape:bbox-nodes="false"
     inkscape:object-paths="true"
     inkscape:window-width="1920"
     inkscape:window-height="1027"
     inkscape:window-x="-8"
     inkscape:window-y="-8"
     inkscape:window-maximized="1" />
  <metadata
     id="metadata5">
    <rdf:RDF>
      <cc:Work
         rdf:about="">
        <dc:format>image/svg+xml</dc:format>
        <dc:type
           rdf:resource="http://purl.org/dc/dcmitype/StillImage" />
        <dc:title></dc:title>
      </cc:Work>
    </rdf:RDF>
  </metadata>
  <g
     inkscape:label="Layer 1"
     inkscape:groupmode="layer"
     id="layer1">
    <flowRoot
       xml:space="preserve"
       id="flowRoot815"
       style="fill:black;fill-opacity:1;stroke:none;font-family:sans-serif;font-style:normal;font-weight:normal;font-size:40px;line-height:1.25;letter-spacing:0px;word-spacing:0px"><flowRegion
         id="flowRegion817"><rect
           id="rect819"
           width="514.28571"
           height="484.28571"
           x="58.57143"
           y="72.519684" /></flowRegion><flowPara
         id="flowPara821"></flowPara></flowRoot>    <text
       xml:space="preserve"
       style="font-style:normal;font-variant:normal;font-weight:normal;font-stretch:normal;font-size:10.58333302px;line-height:1.25;font-family:'Sui Generis Light';-inkscape-font-specification:'Sui Generis Light, ';letter-spacing:0px;word-spacing:0px;fill:#000000;fill-opacity:1;stroke:none;stroke-width:0.26458332"
       x="13.566669"
       y="12.303153"
       id="text829"><tspan
         sodipodi:role="line"
         id="tspan827"
         x="13.566669"
         y="12.303153"
         style="font-style:normal;font-variant:normal;font-weight:normal;font-stretch:normal;font-family:'Sui Generis Light';-inkscape-font-specification:'Sui Generis Light, ';stroke-width:0.26458332">G</tspan></text>
    <g
       aria-label="G"
       style="font-style:normal;font-variant:normal;font-weight:normal;font-stretch:normal;font-size:10.58333302px;line-height:1.25;font-family:'Sui Generis Light';-inkscape-font-specification:'Sui Generis Light, ';letter-spacing:0px;word-spacing:0px;fill:#999999;fill-opacity:1;stroke:none;stroke-width:0.26458332"
       id="text840"
       transform="translate(-6.4822916,-9.2604166)">
      <path
         d="m 40.257219,21.971822 h -1.74625 c 0.222452,-0.588945 -0.43694,-0.01494 -0.751419,-0.01058 h -3.513667 c -0.515055,0 -0.934861,-0.176389 -1.259417,-0.529166 -0.3175,-0.359833 -0.47625,-0.811389 -0.47625,-1.354667 0,-0.183445 0.01764,-0.373945 0.05292,-0.5715 l 0.645583,-3.037417 c 0.148167,-0.677333 0.486833,-1.255888 1.016,-1.735666 0.536223,-0.479778 1.107723,-0.719667 1.7145,-0.719667 h 3.937 c 1.256317,0.06255 0.30648,1.937582 -0.433917,2.032 h -3.936999 c -0.09878,0 -0.194028,0.04233 -0.28575,0.127 -0.09172,0.07761 -0.148167,0.176389 -0.169334,0.296333 l -0.656166,3.037417 c -0.02117,0.119945 -0.0035,0.22225 0.05292,0.306917 0.05645,0.07761 0.134058,0.116416 0.232834,0.116416 h 3.333749 c 0.232833,0 0.465667,-0.105833 0.6985,-0.3175 0.521086,-0.583369 0.509632,-0.684479 -0.169333,-0.656163 h -1.640416 l 0.423333,-2.00025 h 4.0005 z"
         style="font-style:normal;font-variant:normal;font-weight:normal;font-stretch:normal;font-family:'Sui Generis Light';-inkscape-font-specification:'Sui Generis Light, ';fill:#999999;stroke-width:0.26458332"
         id="path842"
         inkscape:connector-curvature="0"
         sodipodi:nodetypes="cccscscccsccsccccsscccccc" />
    </g>
    <g
       id="g847"
       style="font-style:normal;font-variant:normal;font-weight:normal;font-stretch:normal;font-size:10.58333302px;line-height:1.25;font-family:'Sui Generis Light';-inkscape-font-specification:'Sui Generis Light, ';letter-spacing:0px;word-spacing:0px;fill:#000000;fill-opacity:1;stroke:none;stroke-width:0.26458332"
       aria-label="G"
       transform="translate(10.063616,0.07087054)" />
    <g
       id="g851"
       style="font-style:normal;font-variant:normal;font-weight:normal;font-stretch:normal;font-size:10.58333302px;line-height:1.25;font-family:'Sui Generis Light';-inkscape-font-specification:'Sui Generis Light, ';letter-spacing:0px;word-spacing:0px;fill:#000000;fill-opacity:1;stroke:none;stroke-width:0.26458332"
       aria-label="G"
       transform="translate(3.8174244,-8.8932596)">
      <path
         sodipodi:nodetypes="cccscscccsccsccccsscccczc"
         inkscape:connector-curvature="0"
         id="path849"
         style="font-style:normal;font-variant:normal;font-weight:normal;font-stretch:normal;font-family:'Sui Generis Light';-inkscape-font-specification:'Sui Generis Light, ';stroke-width:0.26458332"
         d="m 40.257219,21.971822 h -1.74625 c 0.222452,-0.588945 -0.43694,-0.01494 -0.751419,-0.01058 h -3.513667 c -0.515055,0 -0.934861,-0.176389 -1.259417,-0.529166 -0.3175,-0.359833 -0.47625,-0.811389 -0.47625,-1.354667 0,-0.183445 0.01764,-0.373945 0.05292,-0.5715 l 0.645583,-3.037417 c 0.148167,-0.677333 0.486833,-1.255888 1.016,-1.735666 0.536223,-0.479778 1.107723,-0.719667 1.7145,-0.719667 h 3.937 c 1.256317,0.06255 0.30648,1.937582 -0.433917,2.032 h -3.936999 c -0.09878,0 -0.194028,0.04233 -0.28575,0.127 -0.09172,0.07761 -0.148167,0.176389 -0.169334,0.296333 l -0.656166,3.037417 c -0.02117,0.119945 -0.0035,0.22225 0.05292,0.306917 0.05645,0.07761 0.134058,0.116416 0.232834,0.116416 h 3.333749 c 0.232833,0 0.465667,-0.105833 0.6985,-0.3175 0.521086,-0.583369 0.509632,-0.684479 -0.169333,-0.656163 h -1.640416 l 0.423333,-2.00025 c 0,0 2.530718,-0.08219 3.048352,0.45937 0.517634,0.541562 -0.116773,4.557123 -0.116773,4.557123 z" />
    </g>
    <g
       id="g859"
       style="font-style:normal;font-variant:normal;font-weight:normal;font-stretch:normal;font-size:10.58333302px;line-height:1.25;font-family:'Sui Generis Light';-inkscape-font-specification:'Sui Generis Light, ';letter-spacing:0px;word-spacing:0px;fill:#000000;fill-opacity:1;stroke:none;stroke-width:0.26458332"
       aria-label="G"
       transform="translate(-5.9822916,-8.7604166)">
      <path
         sodipodi:nodetypes="cccscscccsccsccccsscccccc"
         inkscape:connector-curvature="0"
         id="path857"
         style="font-style:normal;font-variant:normal;font-weight:normal;font-stretch:normal;font-family:'Sui Generis Light';-inkscape-font-specification:'Sui Generis Light, ';stroke-width:0.26458332"
         d="m 40.257219,21.971822 h -1.74625 c 0.222452,-0.588945 -0.43694,-0.01494 -0.751419,-0.01058 h -3.513667 c -0.515055,0 -0.934861,-0.176389 -1.259417,-0.529166 -0.3175,-0.359833 -0.47625,-0.811389 -0.47625,-1.354667 0,-0.183445 0.01764,-0.373945 0.05292,-0.5715 l 0.645583,-3.037417 c 0.148167,-0.677333 0.486833,-1.255888 1.016,-1.735666 0.536223,-0.479778 1.107723,-0.719667 1.7145,-0.719667 h 3.937 c 1.256317,0.06255 0.30648,1.937582 -0.433917,2.032 h -3.936999 c -0.09878,0 -0.194028,0.04233 -0.28575,0.127 -0.09172,0.07761 -0.148167,0.176389 -0.169334,0.296333 l -0.656166,3.037417 c -0.02117,0.119945 -0.0035,0.22225 0.05292,0.306917 0.05645,0.07761 0.134058,0.116416 0.232834,0.116416 h 3.333749 c 0.232833,0 0.465667,-0.105833 0.6985,-0.3175 0.521086,-0.583369 0.509632,-0.684479 -0.169333,-0.656163 h -1.640416 l 0.423333,-2.00025 h 4.0005 z" />
    </g>
    <g
       id="g883"
       style="font-style:normal;font-variant:normal;font-weight:normal;font-stretch:normal;font-size:10.58333302px;line-height:1.25;font-family:'Sui Generis Light';-inkscape-font-specification:'Sui Generis Light, ';letter-spacing:0px;word-spacing:0px;fill:#999999;fill-opacity:1;stroke:none;stroke-width:0.26458332"
       aria-label="G"
       transform="translate(-7.6850045,5.1053204)">
      <path
         id="path881"
         style="font-style:normal;font-variant:normal;font-weight:normal;font-stretch:normal;font-family:'Sui Generis Light';-inkscape-font-specification:'Sui Generis Light, ';fill:#999999;stroke-width:0.26458332"
         d="m 40.257219,21.971822 h -1.74625 c 0.222452,-0.588945 -0.43694,-0.01494 -0.751419,-0.01058 h -3.513667 c -0.515055,0 -0.934861,-0.176389 -1.259417,-0.529166 -0.3175,-0.359833 -0.47625,-0.811389 -0.47625,-1.354667 0,-0.183445 0.01764,-0.373945 0.05292,-0.5715 l 0.645583,-3.037417 c 0.148167,-0.677333 0.486833,-1.255888 1.016,-1.735666 0.536223,-0.479778 1.107723,-0.719667 1.7145,-0.719667 h 3.937 c 1.256317,0.06255 0.30648,1.937582 -0.433917,2.032 h -3.936999 c -0.09878,0 -0.194028,0.04233 -0.28575,0.127 -0.09172,0.07761 -0.148167,0.176389 -0.169334,0.296333 l -0.656166,3.037417 c -0.02117,0.119945 -0.0035,0.22225 0.05292,0.306917 0.05645,0.07761 0.134058,0.116416 0.232834,0.116416 h 3.333749 c 0.232833,0 0.465667,-0.105833 0.6985,-0.3175 0.521086,-0.583369 0.509632,-0.684479 -0.169333,-0.656163 h -1.640416 l 0.423333,-2.00025 h 4.0005 z M 32.99583,20.468703 h 0.567948 l -0.03941,1.503323 -0.501713,-0.501753 z m 6.982195,-6.315027 0.340552,0.01297 0.486066,0.488022 -0.826618,0.484564 z"
         inkscape:connector-curvature="0" />
    </g>
    <g
       transform="translate(-7.1850045,5.6053204)"
       aria-label="G"
       style="font-style:normal;font-variant:normal;font-weight:normal;font-stretch:normal;font-size:10.58333302px;line-height:1.25;font-family:'Sui Generis Light';-inkscape-font-specification:'Sui Generis Light, ';letter-spacing:0px;word-spacing:0px;fill:#000000;fill-opacity:1;stroke:none;stroke-width:0.26458332"
       id="g887">
      <path
         d="m 40.257219,21.971822 h -1.74625 c 0.222452,-0.588945 -0.43694,-0.01494 -0.751419,-0.01058 h -3.513667 c -0.515055,0 -0.934861,-0.176389 -1.259417,-0.529166 -0.3175,-0.359833 -0.47625,-0.811389 -0.47625,-1.354667 0,-0.183445 0.01764,-0.373945 0.05292,-0.5715 l 0.645583,-3.037417 c 0.148167,-0.677333 0.486833,-1.255888 1.016,-1.735666 0.536223,-0.479778 1.107723,-0.719667 1.7145,-0.719667 h 3.937 c 1.256317,0.06255 0.30648,1.937582 -0.433917,2.032 h -3.936999 c -0.09878,0 -0.194028,0.04233 -0.28575,0.127 -0.09172,0.07761 -0.148167,0.176389 -0.169334,0.296333 l -0.656166,3.037417 c -0.02117,0.119945 -0.0035,0.22225 0.05292,0.306917 0.05645,0.07761 0.134058,0.116416 0.232834,0.116416 h 3.333749 c 0.232833,0 0.465667,-0.105833 0.6985,-0.3175 0.521086,-0.583369 0.509632,-0.684479 -0.169333,-0.656163 h -1.640416 l 0.423333,-2.00025 h 4.0005 z"
         style="font-style:normal;font-variant:normal;font-weight:normal;font-stretch:normal;font-family:'Sui Generis Light';-inkscape-font-specification:'Sui Generis Light, ';stroke-width:0.26458332"
         id="path885"
         inkscape:connector-curvature="0"
         sodipodi:nodetypes="cccscscccsccsccccsscccccc" />
    </g>
    <path
       style="fill:#ff0000;fill-rule:nonzero;stroke-width:0.26458332"
       d="m 37.332017,24.623471 h 0.567948 v 0.985556 h -0.567948 z"
       id="rect891"
       inkscape:connector-curvature="0" />
    <path
       id="path899"
       d="m 29.217302,24.060899 0.423333,-2.00025 0.5,0.5 -0.423333,2.00025 z"
       style="fill:#ff0000;fill-rule:nonzero;stroke-width:0.26458332"
       inkscape:connector-curvature="0"
       sodipodi:nodetypes="ccccc" />
    <path
       id="path901"
       d="m 29.640635,22.060649 h 4.0005 l 0.5,0.5 h -4.0005 z"
       style="fill:#999999;fill-opacity:1;fill-rule:nonzero;stroke-width:0.26458332"
       inkscape:connector-curvature="0"
       sodipodi:nodetypes="ccccc" />
    <g
       transform="translate(-17.176932,4.6919094)"
       aria-label="G"
       style="font-style:normal;font-variant:normal;font-weight:normal;font-stretch:normal;font-size:10.58333302px;line-height:1.25;font-family:'Sui Generis Light';-inkscape-font-specification:'Sui Generis Light, ';letter-spacing:0px;word-spacing:0px;fill:#999999;fill-opacity:1;stroke:none;stroke-width:0.26458332"
       id="g911">
      <path
         d="m 40.257219,21.971822 h -1.74625 c 0.222452,-0.588945 -0.43694,-0.01494 -0.751419,-0.01058 h -3.513667 c -0.515055,0 -0.934861,-0.176389 -1.259417,-0.529166 -0.3175,-0.359833 -0.47625,-0.811389 -0.47625,-1.354667 0,-0.183445 0.01764,-0.373945 0.05292,-0.5715 l 0.645583,-3.037417 c 0.148167,-0.677333 0.486833,-1.255888 1.016,-1.735666 0.536223,-0.479778 1.107723,-0.719667 1.7145,-0.719667 h 3.937 c 1.256317,0.06255 0.30648,1.937582 -0.433917,2.032 h -3.936999 c -0.09878,0 -0.194028,0.04233 -0.28575,0.127 -0.09172,0.07761 -0.148167,0.176389 -0.169334,0.296333 l -0.656166,3.037417 c -0.02117,0.119945 -0.0035,0.22225 0.05292,0.306917 0.05645,0.07761 0.134058,0.116416 0.232834,0.116416 h 3.333749 c 0.232833,0 0.465667,-0.105833 0.6985,-0.3175 0.521086,-0.583369 0.509632,-0.684479 -0.169333,-0.656163 h -1.640416 l 0.423333,-2.00025 h 4.0005 z M 32.99583,20.468703 h 0.567948 l -0.03941,1.503323 -0.501713,-0.501753 z m 6.982195,-6.315027 0.340552,0.01297 0.486066,0.488022 -0.826618,0.484564 z"
         style="font-style:normal;font-variant:normal;font-weight:normal;font-stretch:normal;font-family:'Sui Generis Light';-inkscape-font-specification:'Sui Generis Light, ';fill:#999999;stroke-width:0.26458332"
         id="path909"
         inkscape:connector-curvature="0" />
    </g>
    <g
       id="g915"
       style="font-style:normal;font-variant:normal;font-weight:normal;font-stretch:normal;font-size:10.58333302px;line-height:1.25;font-family:'Sui Generis Light';-inkscape-font-specification:'Sui Generis Light, ';letter-spacing:0px;word-spacing:0px;fill:#000000;fill-opacity:1;stroke:none;stroke-width:0.26458332"
       aria-label="G"
       transform="translate(-16.676932,5.1919094)">
      <path
         sodipodi:nodetypes="cccscscccsccsccccsscccccc"
         inkscape:connector-curvature="0"
         id="path913"
         style="font-style:normal;font-variant:normal;font-weight:normal;font-stretch:normal;font-family:'Sui Generis Light';-inkscape-font-specification:'Sui Generis Light, ';stroke-width:0.26458332"
         d="m 40.257219,21.971822 h -1.74625 c 0.222452,-0.588945 -0.43694,-0.01494 -0.751419,-0.01058 h -3.513667 c -0.515055,0 -0.934861,-0.176389 -1.259417,-0.529166 -0.3175,-0.359833 -0.47625,-0.811389 -0.47625,-1.354667 0,-0.183445 0.01764,-0.373945 0.05292,-0.5715 l 0.645583,-3.037417 c 0.148167,-0.677333 0.486833,-1.255888 1.016,-1.735666 0.536223,-0.479778 1.107723,-0.719667 1.7145,-0.719667 h 3.937 c 1.256317,0.06255 0.30648,1.937582 -0.433917,2.032 h -3.936999 c -0.09878,0 -0.194028,0.04233 -0.28575,0.127 -0.09172,0.07761 -0.148167,0.176389 -0.169334,0.296333 l -0.656166,3.037417 c -0.02117,0.119945 -0.0035,0.22225 0.05292,0.306917 0.05645,0.07761 0.134058,0.116416 0.232834,0.116416 h 3.333749 c 0.232833,0 0.465667,-0.105833 0.6985,-0.3175 0.521086,-0.583369 0.509632,-0.684479 -0.169333,-0.656163 h -1.640416 l 0.423333,-2.00025 h 4.0005 z" />
    </g>
    <path
       sodipodi:nodetypes="ccccc"
       inkscape:connector-curvature="0"
       style="fill:#999999;fill-opacity:1;fill-rule:nonzero;stroke-width:0.26458332"
       d="m 19.725375,23.647488 0.423333,-2.00025 0.5,0.5 -0.423333,2.00025 z"
       id="path917" />
    <path
       sodipodi:nodetypes="ccccc"
       inkscape:connector-curvature="0"
       style="fill:#999999;fill-opacity:1;fill-rule:nonzero;stroke-width:0.26458332"
       d="m 20.148708,21.647238 h 4.0005 l 0.5,0.5 h -4.0005 z"
       id="path919" />
    <g
       id="g923"
       style="font-style:normal;font-variant:normal;font-weight:normal;font-stretch:normal;font-size:10.58333302px;line-height:1.25;font-family:'Sui Generis Light';-inkscape-font-specification:'Sui Generis Light, ';letter-spacing:0px;word-spacing:0px;fill:#999999;fill-opacity:1;stroke:none;stroke-width:0.26458332"
       aria-label="G"
       transform="translate(-27.139404,4.3177314)">
      <path
         inkscape:connector-curvature="0"
         id="path921"
         style="font-style:normal;font-variant:normal;font-weight:normal;font-stretch:normal;font-family:'Sui Generis Light';-inkscape-font-specification:'Sui Generis Light, ';fill:#999999;stroke-width:0.26458332"
         d="m 40.257219,21.971822 h -1.74625 c 0.222452,-0.588945 -0.43694,-0.01494 -0.751419,-0.01058 h -3.513667 c -0.515055,0 -0.934861,-0.176389 -1.259417,-0.529166 -0.3175,-0.359833 -0.47625,-0.811389 -0.47625,-1.354667 0,-0.183445 0.01764,-0.373945 0.05292,-0.5715 l 0.645583,-3.037417 c 0.148167,-0.677333 0.486833,-1.255888 1.016,-1.735666 0.536223,-0.479778 1.107723,-0.719667 1.7145,-0.719667 h 3.937 c 1.256317,0.06255 0.30648,1.937582 -0.433917,2.032 h -3.936999 c -0.09878,0 -0.194028,0.04233 -0.28575,0.127 -0.09172,0.07761 -0.148167,0.176389 -0.169334,0.296333 l -0.656166,3.037417 c -0.02117,0.119945 -0.0035,0.22225 0.05292,0.306917 0.05645,0.07761 0.134058,0.116416 0.232834,0.116416 h 3.333749 c 0.232833,0 0.465667,-0.105833 0.6985,-0.3175 0.521086,-0.583369 0.509632,-0.684479 -0.169333,-0.656163 h -1.640416 l 0.423333,-2.00025 h 4.0005 z M 32.99583,20.468703 h 0.567948 l -0.03941,1.503323 -0.501713,-0.501753 z m 6.982195,-6.315027 0.340552,0.01297 0.486066,0.488022 -0.826618,0.484564 z" />
    </g>
    <g
       transform="translate(-26.639404,4.8177314)"
       aria-label="G"
       style="font-style:normal;font-variant:normal;font-weight:normal;font-stretch:normal;font-size:10.58333302px;line-height:1.25;font-family:'Sui Generis Light';-inkscape-font-specification:'Sui Generis Light, ';letter-spacing:0px;word-spacing:0px;fill:#000000;fill-opacity:1;stroke:none;stroke-width:0.26458332"
       id="g927">
      <path
         d="m 40.257219,21.971822 h -1.74625 c 0.222452,-0.588945 -0.43694,-0.01494 -0.751419,-0.01058 h -3.513667 c -0.515055,0 -0.934861,-0.176389 -1.259417,-0.529166 -0.3175,-0.359833 -0.47625,-0.811389 -0.47625,-1.354667 0,-0.183445 0.01764,-0.373945 0.05292,-0.5715 l 0.645583,-3.037417 c 0.148167,-0.677333 0.486833,-1.255888 1.016,-1.735666 0.536223,-0.479778 1.107723,-0.719667 1.7145,-0.719667 h 3.937 c 1.256317,0.06255 0.30648,1.937582 -0.433917,2.032 h -3.936999 c -0.09878,0 -0.194028,0.04233 -0.28575,0.127 -0.09172,0.07761 -0.148167,0.176389 -0.169334,0.296333 l -0.656166,3.037417 c -0.02117,0.119945 -0.0035,0.22225 0.05292,0.306917 0.05645,0.07761 0.134058,0.116416 0.232834,0.116416 h 3.333749 c 0.232833,0 0.465667,-0.105833 0.6985,-0.3175 0.521086,-0.583369 0.509632,-0.684479 -0.169333,-0.656163 h -1.640416 l 0.423333,-2.00025 h 4.0005 z"
         style="font-style:normal;font-variant:normal;font-weight:normal;font-stretch:normal;font-family:'Sui Generis Light';-inkscape-font-specification:'Sui Generis Light, ';stroke-width:0.26458332"
         id="path925"
         inkscape:connector-curvature="0"
         sodipodi:nodetypes="cccscscccsccsccccsscccccc" />
    </g>
    <path
       id="path929"
       d="m 9.7629034,23.27331 0.4233326,-2.00025 0.5,0.5 -0.423333,2.00025 z"
       style="fill:#666666;fill-opacity:1;fill-rule:nonzero;stroke-width:0.26458332"
       inkscape:connector-curvature="0"
       sodipodi:nodetypes="ccccc" />
    <path
       id="path931"
       d="m 10.186236,21.27306 h 4.0005 l 0.5,0.5 h -4.0005 z"
       style="fill:#999999;fill-opacity:1;fill-rule:nonzero;stroke-width:0.26458332"
       inkscape:connector-curvature="0"
       sodipodi:nodetypes="ccccc" />
    <g
       transform="matrix(3.9915538,0,0,3.9915538,-148.81586,-122.97305)"
       id="g1046"
       style="font-style:normal;font-variant:normal;font-weight:normal;font-stretch:normal;font-size:10.58333302px;line-height:1.25;font-family:'Sui Generis Light';-inkscape-font-specification:'Sui Generis Light, ';letter-spacing:0px;word-spacing:0px;fill:#999999;fill-opacity:1;stroke:none;stroke-width:0.26458332"
       aria-label="G" />
    <g
       transform="translate(-3.170386,24.619482)"
       aria-label="G"
       style="font-style:normal;font-variant:normal;font-weight:normal;font-stretch:normal;font-size:10.58333302px;line-height:1.25;font-family:'Sui Generis Light';-inkscape-font-specification:'Sui Generis Light, ';letter-spacing:0px;word-spacing:0px;fill:#999999;fill-opacity:1;stroke:none;stroke-width:0.26458332"
       id="g1190" />
    <g
       id="g1186"
       transform="translate(33.58448,-35.070521)"
       inkscape:export-xdpi="694.38715"
       inkscape:export-ydpi="694.38715">
      <path
         d="m 47.436733,39.359982 0.248822,-0.179661 0.5,0.5 -0.748822,0.665217 z m -6.998633,4.967221 0.5,0.5 -0.526179,2.254319 -0.518119,-0.521071 z m 6.751521,2.801981 h -1.74625 c 0.222452,-0.588945 -0.43694,-0.01494 -0.751419,-0.01058 h -3.513667 c -0.515055,0 -0.934861,-0.176389 -1.259417,-0.529166 -0.3175,-0.359833 -0.47625,-0.811389 -0.47625,-1.354667 0,-0.183445 0.01764,-0.373945 0.05292,-0.5715 l 0.645583,-3.037417 c 0.148167,-0.677333 0.486833,-1.255888 1.016,-1.735666 0.536223,-0.479778 1.107723,-0.719667 1.7145,-0.719667 l 4.813934,0.0098 -0.433917,2.032 -4.813933,-0.0098 c -0.09878,-2.01e-4 -0.194028,0.04233 -0.28575,0.127 -0.09172,0.07761 -0.148167,0.176389 -0.169334,0.296333 l -0.656166,3.037417 c -0.02117,0.119945 -0.0035,0.22225 0.05292,0.306917 0.05645,0.07761 0.134058,0.116416 0.232834,0.116416 h 3.333749 c 0.232833,0 0.465667,-0.105833 0.6985,-0.3175 0.521086,-0.583369 0.509632,-0.684479 -0.169333,-0.656163 h -1.640416 l 0.423333,-2.00025 h 4.0005 z"
         style="fill:#999999;fill-opacity:1;fill-rule:nonzero;stroke-width:0.26458332"
         id="path1177"
         inkscape:connector-curvature="0" />
      <g
         transform="translate(6.932402,25.157362)"
         aria-label="G"
         style="font-style:normal;font-variant:normal;font-weight:normal;font-stretch:normal;font-size:10.58333302px;line-height:1.25;font-family:'Sui Generis Light';-inkscape-font-specification:'Sui Generis Light, ';letter-spacing:0px;word-spacing:0px;fill:#999999;fill-opacity:1;stroke:none;stroke-width:0.26458332"
         id="g1140" />
      <g
         id="g1168"
         style="font-style:normal;font-variant:normal;font-weight:normal;font-stretch:normal;font-size:10.58333302px;line-height:1.25;font-family:'Sui Generis Light';-inkscape-font-specification:'Sui Generis Light, ';letter-spacing:0px;word-spacing:0px;fill:#000000;fill-opacity:1;stroke:none;stroke-width:0.26458332"
         aria-label="G"
         transform="translate(7.432402,25.657362)">
        <path
           sodipodi:nodetypes="cccscscccsccsccccsscccccc"
           inkscape:connector-curvature="0"
           id="path1166"
           style="font-style:normal;font-variant:normal;font-weight:normal;font-stretch:normal;font-family:'Sui Generis Light';-inkscape-font-specification:'Sui Generis Light, ';stroke-width:0.26458332"
           d="m 40.257219,21.971822 h -1.74625 c 0.222452,-0.588945 -0.43694,-0.01494 -0.751419,-0.01058 h -3.513667 c -0.515055,0 -0.934861,-0.176389 -1.259417,-0.529166 -0.3175,-0.359833 -0.47625,-0.811389 -0.47625,-1.354667 0,-0.183445 0.01764,-0.373945 0.05292,-0.5715 l 0.645583,-3.037417 c 0.148167,-0.677333 0.486833,-1.255888 1.016,-1.735666 0.536223,-0.479778 1.107723,-0.719667 1.7145,-0.719667 l 4.813934,0.0098 -0.433917,2.032 -4.813933,-0.0098 c -0.09878,-2.01e-4 -0.194028,0.04233 -0.28575,0.127 -0.09172,0.07761 -0.148167,0.176389 -0.169334,0.296333 l -0.656166,3.037417 c -0.02117,0.119945 -0.0035,0.22225 0.05292,0.306917 0.05645,0.07761 0.134058,0.116416 0.232834,0.116416 h 3.333749 c 0.232833,0 0.465667,-0.105833 0.6985,-0.3175 0.521086,-0.583369 0.509632,-0.684479 -0.169333,-0.656163 h -1.640416 l 0.423333,-2.00025 h 4.0005 z" />
      </g>
      <path
         sodipodi:nodetypes="ccccc"
         style="fill:#999999;fill-opacity:1;fill-rule:nonzero;stroke-width:0.26458332"
         d="m 44.258042,42.112691 h 4.0005 l 0.5,0.5 h -4.0005 z"
         id="path1170"
         inkscape:connector-curvature="0" />
      <path
         sodipodi:nodetypes="ccccc"
         style="fill:#ff0000;fill-rule:nonzero;stroke-width:0.26458332"
         d="m 44.258042,42.112691 0.5,0.5 -0.423333,2.00025 -0.5,-0.5 z"
         id="path1172"
         inkscape:connector-curvature="0" />
    </g>
    <g
       id="g1213"
       transform="translate(34.24824,-34.532641)"
       inkscape:export-xdpi="694.38715"
       inkscape:export-ydpi="694.38715">
      <path
         id="path1188"
         style="fill:#999999;fill-opacity:1;fill-rule:nonzero;stroke-width:0.26458332"
         d="m 37.333945,38.822102 0.248822,-0.179661 0.5,0.5 -0.748822,0.665217 z m -6.998633,4.967221 0.5,0.5 -0.526179,2.254319 -0.518119,-0.521071 z m 6.751521,2.801981 h -1.74625 c 0.222452,-0.588945 -0.43694,-0.01494 -0.751419,-0.01058 h -3.513667 c -0.515055,0 -0.934861,-0.176389 -1.259417,-0.529166 -0.3175,-0.359833 -0.47625,-0.811389 -0.47625,-1.354667 0,-0.183445 0.01764,-0.373945 0.05292,-0.5715 l 0.645583,-3.037417 c 0.148167,-0.677333 0.486833,-1.255888 1.016,-1.735666 0.536223,-0.479778 1.107723,-0.719667 1.7145,-0.719667 l 4.813934,0.0098 -0.433917,2.032 -4.813933,-0.0098 c -0.09878,-2.01e-4 -0.194028,0.04233 -0.28575,0.127 -0.09172,0.07761 -0.148167,0.176389 -0.169334,0.296333 l -0.656166,3.037417 c -0.02117,0.119945 -0.0035,0.22225 0.05292,0.306917 0.05645,0.07761 0.134058,0.116416 0.232834,0.116416 h 3.333749 c 0.232833,0 0.465667,-0.105833 0.6985,-0.3175 0.521086,-0.583369 0.509632,-0.684479 -0.169333,-0.656163 h -1.640416 l 0.423333,-2.00025 h 4.0005 z"
         inkscape:connector-curvature="0" />
      <g
         transform="translate(-2.670386,25.119482)"
         aria-label="G"
         style="font-style:normal;font-variant:normal;font-weight:normal;font-stretch:normal;font-size:10.58333302px;line-height:1.25;font-family:'Sui Generis Light';-inkscape-font-specification:'Sui Generis Light, ';letter-spacing:0px;word-spacing:0px;fill:#000000;fill-opacity:1;stroke:none;stroke-width:0.26458332"
         id="g1194">
        <path
           d="m 40.257219,21.971822 h -1.74625 c 0.222452,-0.588945 -0.43694,-0.01494 -0.751419,-0.01058 h -3.513667 c -0.515055,0 -0.934861,-0.176389 -1.259417,-0.529166 -0.3175,-0.359833 -0.47625,-0.811389 -0.47625,-1.354667 0,-0.183445 0.01764,-0.373945 0.05292,-0.5715 l 0.645583,-3.037417 c 0.148167,-0.677333 0.486833,-1.255888 1.016,-1.735666 0.536223,-0.479778 1.107723,-0.719667 1.7145,-0.719667 l 4.813934,0.0098 -0.433917,2.032 -4.813933,-0.0098 c -0.09878,-2.01e-4 -0.194028,0.04233 -0.28575,0.127 -0.09172,0.07761 -0.148167,0.176389 -0.169334,0.296333 l -0.656166,3.037417 c -0.02117,0.119945 -0.0035,0.22225 0.05292,0.306917 0.05645,0.07761 0.134058,0.116416 0.232834,0.116416 h 3.333749 c 0.232833,0 0.465667,-0.105833 0.6985,-0.3175 0.521086,-0.583369 0.509632,-0.684479 -0.169333,-0.656163 h -1.640416 l 0.423333,-2.00025 h 4.0005 z"
           style="font-style:normal;font-variant:normal;font-weight:normal;font-stretch:normal;font-family:'Sui Generis Light';-inkscape-font-specification:'Sui Generis Light, ';stroke-width:0.26458332"
           id="path1192"
           inkscape:connector-curvature="0"
           sodipodi:nodetypes="cccscscccsccsccccsscccccc" />
      </g>
      <path
         inkscape:connector-curvature="0"
         id="path1196"
         d="m 34.155254,41.574811 h 4.0005 l 0.5,0.5 h -4.0005 z"
         style="fill:#999999;fill-opacity:1;fill-rule:nonzero;stroke-width:0.26458332"
         sodipodi:nodetypes="ccccc" />
      <path
         inkscape:connector-curvature="0"
         id="path1198"
         d="m 34.155254,41.574811 0.5,0.5 -0.423333,2.00025 -0.5,-0.5 z"
         style="fill:#999999;fill-opacity:1;fill-rule:nonzero;stroke-width:0.26458332"
         sodipodi:nodetypes="ccccc" />
    </g>
    <text
       xml:space="preserve"
       style="font-style:normal;font-variant:normal;font-weight:normal;font-stretch:normal;font-size:11.64025784px;line-height:1.25;font-family:'Sui Generis Light';-inkscape-font-specification:'Sui Generis Light, ';letter-spacing:0px;word-spacing:0px;fill:#000000;fill-opacity:1;stroke:none;stroke-width:0.29100645"
       x="63.912582"
       y="14.290697"
       id="text829-7-4"
       inkscape:export-xdpi="694.38715"
       inkscape:export-ydpi="694.38715"><tspan
         sodipodi:role="line"
         id="tspan827-9-5"
         x="63.912582"
         y="14.290697"
         style="font-style:normal;font-variant:normal;font-weight:normal;font-stretch:normal;font-size:1.55203438px;font-family:'Eurostar Black Extended';-inkscape-font-specification:'Eurostar Black Extended';stroke-width:0.29100645">Gauge Generator</tspan></text>
  </g>
</svg>
